<svg width="375" height="404" viewBox="0 0 375 404" fill="none" xmlns="http://www.w3.org/2000/svg">
<path fill-rule="evenodd" clip-rule="evenodd" d="M215.732 3.98534C212.579 6.12634 209.007 8.80334 207.793 9.93334C206.58 11.0643 204.826 11.9893 203.896 11.9893C202.966 11.9893 200.464 14.1273 198.336 16.7393C196.208 19.3513 192.137 23.9073 189.289 26.8633L184.111 32.2373L179.787 28.1993C177.41 25.9783 173.994 22.8853 172.198 21.3253C168.313 17.9533 156.143 11.4773 155.291 12.3293C154.609 13.0103 156.537 16.1153 160.356 20.4893C161.797 22.1393 163.229 24.2773 163.537 25.2393C163.846 26.2013 164.518 26.9893 165.031 26.9893C165.544 26.9893 165.964 27.6643 165.964 28.4893C165.964 29.3143 165.289 29.9893 164.464 29.9893C163.639 29.9893 162.964 29.5393 162.964 28.9893C162.964 28.4393 162.471 27.9893 161.868 27.9893C161.265 27.9893 157.103 25.5753 152.618 22.6253C136.971 12.3333 118.863 1.98934 116.492 1.98934C114.758 1.98934 119.876 10.7833 122.214 11.8223C122.626 12.0063 122.964 12.7083 122.964 13.3843C122.964 14.0593 123.857 15.5703 124.948 16.7413C126.836 18.7683 130.964 25.4953 130.964 26.5453C130.964 27.4303 125.345 24.1633 120.478 20.4483C114.739 16.0673 102.961 9.47334 102.972 10.6473C102.976 11.1103 106.351 15.4763 110.472 20.3493C117.937 29.1773 119.087 30.8263 116.714 29.3063C112.445 26.5713 98.9643 23.8903 98.9643 25.7773C98.9643 26.3523 99.3023 27.0113 99.7143 27.2423C100.126 27.4723 99.7893 27.4793 98.9643 27.2563C92.4533 25.4973 85.1343 24.8643 70.4643 24.7923C54.2693 24.7123 46.9643 25.3433 46.9643 26.8203C46.9643 27.1903 49.7763 28.8063 53.2143 30.4123C56.6523 32.0183 60.8923 34.2853 62.6373 35.4503L65.8103 37.5693L62.8513 38.8793C58.7253 40.7053 50.5573 48.8903 48.7263 53.0333C45.6583 59.9743 44.7113 63.0693 45.4393 63.7713C45.8483 64.1663 46.9213 63.3833 47.8233 62.0303C51.0343 57.2193 54.2543 53.8863 58.5373 50.9393L62.8803 47.9513L58.1723 54.7913C55.5833 58.5533 52.3944 64.0743 51.0854 67.0603C48.2224 73.5963 44.8283 80.3023 44.0373 80.9893C42.8253 82.0403 40.6533 87.0123 41.1773 87.5353C41.4793 87.8373 42.3434 87.5003 43.0964 86.7873C43.8504 86.0733 46.7143 83.6893 49.4604 81.4893C52.2064 79.2893 56.0314 76.0053 57.9594 74.1913C60.8604 71.4613 61.5254 71.1883 61.8194 72.6073C62.1654 74.2763 60.2633 81.4853 58.9473 83.4893C58.5863 84.0393 57.2664 87.1893 56.0134 90.4893C54.7594 93.7893 52.9443 98.2893 51.9793 100.489C51.0143 102.689 49.8864 105.614 49.4724 106.989C49.0584 108.364 48.3894 109.939 47.9864 110.489C47.5834 111.039 47.0053 112.5 46.7033 113.736C46.3063 115.358 46.5013 115.775 47.4053 115.236C49.1053 114.221 54.0553 108.354 57.2993 103.507C61.7213 96.9003 60.6704 101.553 52.3334 125.489C48.9224 135.282 48.3144 136.913 46.1814 141.989C45.6044 143.364 44.9193 145.389 44.6613 146.489C44.4023 147.589 43.8673 149.276 43.4703 150.239C42.9923 151.401 43.2063 151.985 44.1073 151.978C44.8533 151.971 48.0523 148.085 51.2143 143.34C57.0443 134.594 58.0793 133.646 55.5813 139.338C51.5933 148.427 49.0083 159.548 48.9813 167.739C48.9613 173.893 50.0973 174.531 51.6553 169.239C52.2623 167.177 53.9203 162.789 55.3383 159.489L57.9174 153.489L57.9403 161.989C57.9693 172.18 56.3073 180.451 50.5083 198.989C46.5223 211.734 46.4543 212.122 48.3453 211.396C49.2353 211.055 49.9643 210.481 49.9643 210.122C49.9643 209.763 51.0323 208.316 52.3383 206.908C53.6443 205.5 55.4263 203.03 56.2983 201.419C57.8373 198.576 57.8853 198.786 57.9243 208.509C57.9693 219.8 55.7903 229.471 51.4503 237.235C48.1403 243.156 48.3353 245.582 51.9643 243.64C56.4023 241.265 62.4373 237.796 63.4643 237.029C65.1323 235.783 72.9643 234.142 72.9643 235.039C72.9643 235.499 71.6284 236.665 69.9954 237.63C68.3634 238.594 66.7833 240.019 66.4843 240.797C66.0513 241.925 66.7013 242.08 69.7033 241.566C74.4243 240.757 89.2593 239.212 98.4643 238.571C105.092 238.11 105.318 238.162 102.714 239.568C101.202 240.385 99.9643 241.489 99.9643 242.021C99.9643 242.553 99.5103 242.989 98.9553 242.989C98.0563 242.989 94.2204 246.025 90.2774 249.858C87.9004 252.168 89.4803 252.218 96.7263 250.06C100.551 248.921 104.617 247.989 105.763 247.989C106.909 247.989 108.093 247.589 108.396 247.099C108.698 246.61 110.412 245.999 112.205 245.742C116.123 245.18 125.33 241.791 125.797 240.739C125.981 240.326 126.792 239.989 127.6 239.989C128.408 239.989 125.333 243.846 120.766 248.559C108.75 260.963 108.903 261.224 124.194 254.417C129.842 251.902 137.389 248.931 140.964 247.814C144.539 246.696 148.432 245.326 149.615 244.769C153.889 242.757 154.105 244.593 150.057 248.52C146.549 251.923 144.831 254.989 146.431 254.989C146.688 254.989 152.852 252.078 160.129 248.52C167.406 244.962 173.57 242.262 173.828 242.52C174.086 242.778 173.772 242.989 173.131 242.989C172.489 242.989 171.964 243.799 171.964 244.789C171.964 245.779 171.606 247.017 171.168 247.539C169.71 249.28 167.83 255.962 168.495 257.039C168.887 257.674 171.281 256.164 174.435 253.295C177.341 250.652 181.198 247.314 183.008 245.877L186.297 243.265L190.381 246.014C192.626 247.526 197.389 250.399 200.964 252.398C204.539 254.396 208.23 256.569 209.166 257.225C211.975 259.194 212.34 257.327 209.837 253.797C207.744 250.845 204.897 248.07 200.041 244.248C197.377 242.151 207.956 246.178 215.717 250.216C219.706 252.291 223.194 253.989 223.467 253.989C224.77 253.989 223.673 251.409 220.856 247.853L217.749 243.929L221.106 245.9C224.656 247.983 240.876 252.989 244.076 252.989C246.947 252.989 246.34 251.408 242.627 249.218C240.792 248.135 238.43 246.524 237.377 245.638C236.325 244.752 234.564 243.375 233.464 242.577C231.631 241.248 231.839 241.17 235.964 241.641C240.321 242.139 251.384 245.143 255.464 246.937C262.037 249.826 272.93 253.875 275.714 254.462C280.179 255.404 279.839 253.838 274.714 249.849C272.377 248.029 270.239 246.278 269.964 245.957C269.689 245.636 268.339 244.556 266.964 243.558C265.078 242.188 264.955 241.918 266.464 242.458C269.498 243.542 278.03 246.039 281.964 246.995C286.285 248.044 310.487 250.997 314.516 250.967L317.464 250.945L314.964 249.012C313.589 247.949 311.339 246.497 309.964 245.786C308.589 245.074 307.239 244.249 306.964 243.952C306.689 243.655 303.989 242.197 300.964 240.713C297.939 239.229 296.258 238.009 297.228 238.002C298.198 237.995 299.773 237.612 300.728 237.151C301.683 236.69 305.063 235.054 308.239 233.516C313.658 230.89 327.964 218.855 327.964 216.92C327.964 215.704 322.104 216.971 318.464 218.975C312.025 222.518 311.908 222.393 314.923 215.176C320.664 201.432 327.243 186.369 329.073 182.779C331.344 178.324 331.375 177.989 329.521 177.989C328.727 177.989 325.269 180.577 321.835 183.739C318.262 187.03 315.92 188.634 316.358 187.489C316.779 186.389 317.537 183.126 318.044 180.239C320.082 168.614 320.904 164.266 321.967 159.489C323.76 151.434 324.772 145.515 324.423 145.139C323.65 144.308 321.721 146.485 318.953 151.311L315.983 156.489L315.973 152.258C315.958 145.166 318.083 133.844 320.716 126.989C325.155 115.435 327.723 106.958 326.933 106.47C326.508 106.207 323.792 108.579 320.897 111.741L315.633 117.489L316.307 113.489C316.678 111.289 317.429 106.339 317.977 102.489C318.524 98.6393 319.231 94.2523 319.547 92.7393C319.983 90.6573 319.739 89.9893 318.543 89.9893C317.675 89.9893 316.964 90.6373 316.964 91.4303C316.964 92.2233 316.556 93.1233 316.057 93.4313C315.559 93.7403 315.295 93.2043 315.472 92.2403C316.538 86.4393 318.438 77.3673 320.153 69.8893C321.238 65.1593 321.977 59.9843 321.795 58.3893C321.486 55.6843 321.229 55.9233 317.968 61.9393C312.831 71.4173 312.673 66.4933 317.621 51.1063C319.252 46.0353 318.778 44.9423 316.028 47.4313C314.956 48.4013 313.565 49.0233 312.937 48.8133C312.308 48.6043 314.307 45.6153 317.379 42.1733C325.4 33.1833 325.031 32.1913 315.439 36.9583C309.413 39.9523 305.534 40.7213 304.544 39.1183C304.248 38.6393 302.646 37.9753 300.985 37.6433C297.906 37.0273 296.738 34.9893 299.464 34.9893C300.289 34.9893 300.964 34.5913 300.964 34.1063C300.964 33.6203 301.864 32.9873 302.964 32.6993C304.064 32.4123 304.964 31.6283 304.964 30.9573C304.964 29.6983 296.149 30.0143 282.214 31.7743C278.777 32.2083 275.964 32.4453 275.964 32.3013C275.964 32.1573 277.962 31.1293 280.403 30.0173C287.169 26.9343 287.347 25.5423 280.869 26.3573C274.96 27.1013 267.846 28.3443 261.174 29.7993C257.041 30.7013 256.945 30.6683 258.556 28.8883C259.475 27.8713 261.068 26.7733 262.096 26.4473C263.123 26.1213 263.964 24.9403 263.964 23.8233C263.964 21.8013 263.947 21.8013 260.338 23.9313C258.344 25.1083 256.514 25.8723 256.272 25.6313C255.756 25.1143 261.378 20.7033 264.971 18.8063C268.846 16.7593 278.964 8.85134 278.964 7.86934C278.964 6.70834 278.682 6.73234 271.028 8.53934C253.82 12.6013 248.604 14.1833 241.978 17.3483C235.459 20.4623 235.025 20.5533 237.066 18.3813C238.298 17.0703 239.063 15.7543 238.766 15.4583C238.069 14.7613 227.658 18.6563 223.037 21.3433C218.121 24.2013 209.613 30.2163 208.768 31.4313C208.386 31.9813 207.839 32.1973 207.554 31.9123C207.268 31.6263 208.048 30.2893 209.286 28.9413C211.501 26.5293 214.991 19.7833 216.443 15.1053C216.851 13.7943 218.709 10.1183 220.574 6.93734C222.438 3.75534 223.964 0.89134 223.964 0.57134C223.964 -0.83466 221.052 0.373338 215.732 3.98534ZM165.964 45.4553C272.875 46.2483 293.71 46.7943 297.464 48.9043C303.684 52.4003 303.435 49.0593 303.767 133.489C303.966 184.339 303.719 211.693 303.037 214.036C301.887 217.991 297.767 222.995 293.964 225.056C291.896 226.177 273.676 226.358 188.52 226.102C125.474 225.912 84.5914 225.418 83.0344 224.826C79.6954 223.556 77.4283 221.035 75.5203 216.469C74.1573 213.206 73.9643 202.992 73.9643 133.989C73.9643 51.0853 73.9834 50.7083 78.3424 47.0903C80.4114 45.3733 84.9763 44.1773 87.9643 44.5683C89.3393 44.7483 124.439 45.1473 165.964 45.4553ZM99.9643 74.9813C99.9643 78.8593 100.228 79.1673 109.214 85.7743C123.501 96.2783 138.784 105.292 160.352 115.934C172.947 122.148 175.964 122.772 175.964 119.162C175.964 117.391 166.351 109.989 164.051 109.989C163.532 109.989 162.465 109.347 161.679 108.562C160.894 107.776 155.35 104.105 149.358 100.402C136.942 92.7293 126.999 86.3553 118.805 80.8153C115.693 78.7113 112.655 76.9893 112.055 76.9893C111.455 76.9893 110.964 76.5393 110.964 75.9893C110.964 75.4393 110.402 74.9793 109.714 74.9673C109.027 74.9553 107.339 74.0653 105.964 72.9893C101.811 69.7413 99.9643 70.3543 99.9643 74.9813ZM271.424 74.3373C268.024 76.2573 259.016 82.0013 248.464 88.9773C242.964 92.6133 236.214 96.8863 233.464 98.4733C230.714 100.06 227.948 101.872 227.316 102.5C226.685 103.128 221.375 106.698 215.516 110.433C208.181 115.109 204.96 117.729 205.175 118.845C205.624 121.175 208.526 121.415 212.775 119.473C223.96 114.361 243.56 103.798 247.464 100.779C248.014 100.354 250.939 98.1293 253.964 95.8353C263.985 88.2383 271.833 80.9583 273.409 77.7993C275.877 72.8523 275.431 72.0743 271.424 74.3373ZM118.964 107.3C118.964 108.572 119.756 110.484 120.723 111.55C121.69 112.617 124.041 115.514 125.947 117.989C127.853 120.464 129.652 122.714 129.944 122.989C130.236 123.264 131.807 125.289 133.433 127.489C137.356 132.794 137.833 133.25 142.583 136.248C147.128 139.117 154.194 140.537 158.845 139.515C162.476 138.718 168.964 132.575 168.964 129.936C168.964 128.654 167.837 127.772 165.304 127.073C161.963 126.15 161.351 126.32 158.27 129.026C156.413 130.655 154.253 131.989 153.468 131.989C150.81 131.989 147.964 127.79 147.964 123.869C147.964 120.866 147.381 119.71 145.018 118.027C141.471 115.502 121.216 104.989 119.897 104.989C119.384 104.989 118.964 106.029 118.964 107.3ZM245.464 112.576C243.264 113.922 240.452 115.455 239.214 115.982C237.374 116.765 236.964 117.729 236.964 121.276C236.964 130.251 228.301 133.409 224.396 125.857C223.131 123.411 222.483 123.067 220.183 123.618C217.867 124.173 212.172 126.632 211.142 127.521C210.966 127.674 211.866 129.396 213.142 131.347C220.001 141.832 237.432 141.673 244.215 131.065C248.105 124.981 250.964 116.957 250.964 112.123C250.964 109.478 250.457 109.52 245.464 112.576ZM262.964 135.57C257.682 138.571 251.964 143.829 251.964 145.685C251.964 147.035 256.106 147.513 257.316 146.304C258.815 144.805 265.715 143.018 270.06 143.004C279.273 142.974 284.141 147.283 284.773 156.026C285.01 159.306 285.549 161.989 285.969 161.989C288.063 161.989 290.127 156.552 289.804 151.887C289.566 148.453 289.838 146.988 290.714 146.988C293.034 146.99 291.672 141.994 288.359 138.351C282.925 132.376 270.903 131.059 262.964 135.57ZM92.2143 141.592C89.8763 143.551 87.9643 145.793 87.9643 146.572C87.9643 147.351 87.5143 147.989 86.9643 147.989C86.4143 147.989 85.9643 148.889 85.9643 149.989C85.9643 151.334 86.6314 151.989 87.9994 151.989C89.7014 151.989 89.8654 152.305 88.9994 153.923C87.5294 156.67 87.7173 159.989 89.3433 159.989C90.1013 159.989 91.2594 158.692 91.9154 157.106C92.5724 155.521 94.3143 153.118 95.7873 151.766C100.259 147.66 104.182 146.658 113.505 147.24C121.198 147.72 121.964 147.604 121.964 145.956C121.964 144.737 119.951 143.139 115.804 141.067C110.773 138.553 108.438 137.993 103.054 138.009C96.9753 138.027 96.1343 138.305 92.2143 141.592ZM103.34 150.452C102.4 152.901 106.019 162.102 110.761 169.318C114.738 175.37 124.041 185.704 128.026 188.497C134.659 193.146 140.318 196.173 147.464 198.897C150.764 200.155 154.364 201.559 155.464 202.017C156.564 202.475 159.714 203.318 162.464 203.891C165.214 204.463 169.576 205.395 172.157 205.96C178.382 207.325 198.105 207.271 207.195 205.864C214.129 204.792 225.187 201.906 229.464 200.054C236.314 197.088 246.234 191.976 246.964 191.036C247.239 190.682 249.039 189.304 250.964 187.974C255.355 184.939 255.541 184.752 261.428 177.501C267.029 170.601 272.791 159.082 273.19 153.989C273.59 148.881 271.291 149.493 267.032 155.629C265.069 158.456 262.226 162.005 260.714 163.515C259.202 165.026 257.964 166.553 257.964 166.91C257.964 167.266 256.63 168.346 255 169.308C253.37 170.271 251.458 171.627 250.75 172.322C244.87 178.093 232.542 183.761 216.464 188.086C209.687 189.909 178.925 189.936 168.964 188.127C145.897 183.939 128.694 175.395 116.558 162.099C114.856 160.234 112.997 158.209 112.427 157.599C111.856 156.988 110.357 154.802 109.095 152.739C106.723 148.861 104.317 147.905 103.34 150.452ZM48.9643 265.58C46.4893 266.428 43.1013 267.741 41.4343 268.498C37.5653 270.255 24.8623 279.717 23.1923 282.086C22.4923 283.079 21.3673 284.475 20.6923 285.19C14.3413 291.91 7.55234 303.655 6.34334 310.013C5.98034 311.925 5.37135 313.939 4.99135 314.489C4.30235 315.486 3.08635 321.045 1.04135 332.549C-0.263654 339.89 -0.357654 350.633 0.847346 354.59C1.33335 356.184 2.32534 359.514 3.05234 361.989C6.16334 372.587 13.5333 381.607 22.7563 386.104C26.2193 387.793 29.2013 388.397 34.0343 388.39C41.2563 388.38 45.2903 387.095 51.7143 382.761C54.0523 381.183 55.9643 380.117 55.9643 380.391C55.9643 381.709 49.9773 391.491 46.9143 395.178C40.1433 403.33 39.8243 403.998 42.7143 403.974C45.1613 403.954 52.6013 401.273 55.5223 399.359C57.7643 397.89 57.9643 397.891 57.9643 399.374C57.9643 401.97 62.3774 401.301 65.4604 398.239C69.4914 394.234 71.5943 388.542 72.9723 377.903C73.6433 372.725 74.5903 367.184 75.0783 365.59C75.5653 363.995 75.9643 360.482 75.9643 357.782C75.9643 355.083 76.4753 349.779 77.1003 345.996C78.0223 340.415 78.8703 338.445 81.6003 335.551C83.6353 333.393 84.9643 330.961 84.9643 329.394C84.9643 326.872 84.8273 326.817 79.7143 327.311C76.8273 327.589 72.2143 328.3 69.4643 328.89C66.7143 329.48 61.0353 330.356 56.8433 330.837C52.6513 331.318 48.7143 332.026 48.0933 332.409C46.1613 333.603 46.7623 336.989 48.9053 336.989C49.9733 336.989 51.1243 337.439 51.4643 337.989C51.8043 338.539 52.9303 338.989 53.9663 338.989C57.7093 338.989 58.8573 342.507 58.3293 352.358C58.0603 357.38 57.6333 362.507 57.3803 363.752C56.4523 368.316 47.1243 374.989 41.6723 374.989C38.6233 374.989 30.2833 371.383 32.0043 370.809C32.7993 370.544 31.7623 368.445 29.1073 364.943C26.8333 361.943 24.9713 358.672 24.9683 357.673C24.9663 356.675 24.4753 354.944 23.8783 353.828C22.4683 351.194 22.5633 332.014 24.0183 325.522C29.5753 300.727 37.0563 288.308 49.7003 282.888C54.1573 280.977 54.1723 280.978 58.0193 283.14C61.9803 285.366 65.0914 291.117 68.0834 301.739C69.4774 306.688 71.4653 307.213 74.9123 303.544C76.6723 301.671 77.5244 298.922 78.5534 291.794C79.2934 286.676 80.3233 280.464 80.8433 277.989C83.7823 264.012 83.5963 263.616 76.9293 269.64L72.8883 273.29L70.1764 270.754C64.0914 265.063 56.1373 263.123 48.9643 265.58ZM318.02 270.857C312.825 274.046 308.439 277.068 308.272 277.572C308.106 278.077 309.646 279.389 311.694 280.489C314.847 282.183 315.542 283.178 316.233 286.989C317.399 293.43 315.784 322.38 312.914 346.489C312.39 350.889 311.957 356.289 311.951 358.489C311.936 364.037 309.449 372.842 306.936 376.241C304.081 380.102 304.694 382.519 308.491 382.381C318.674 382.012 333.313 380.892 334.07 380.424C335.8 379.355 334.934 376.454 332.081 373.762C328.408 370.295 328.064 367.8 328.733 349.489C329.199 336.729 329.582 334.03 331.294 331.413C333.89 327.444 340.276 323.789 344.613 323.789C350.612 323.789 350.968 324.695 350.928 339.861C350.88 357.937 349.003 372.092 346.14 375.965C344.943 377.584 343.964 379.826 343.964 380.949C343.964 382.908 344.535 382.989 358.429 382.989C371.466 382.989 372.991 382.807 373.881 381.144C374.992 379.068 372.802 374.989 370.576 374.989C369.277 374.989 367.568 372.205 366.49 368.336C366.161 367.152 366.397 359.277 367.015 350.836C367.633 342.395 368.274 333.635 368.439 331.368C368.879 325.304 367.129 316.945 364.643 313.244C362.109 309.469 357.492 306.989 353.001 306.989C348.826 306.989 340.445 311.029 335.062 315.637L330.735 319.341L331.369 314.415C331.717 311.706 332.425 305.889 332.942 301.489C335.089 283.21 335.849 277.308 336.48 273.983C337.032 271.077 336.712 270.009 334.603 267.733C333.204 266.224 331.026 265.004 329.762 265.023C328.498 265.042 323.214 267.667 318.02 270.857ZM296.437 268.277C295.872 268.944 294.33 271.064 293.011 272.989C291.691 274.914 290.492 276.651 290.345 276.848C290.199 277.046 288.816 276.331 287.272 275.26C277.107 268.213 259.295 270.339 249.155 279.81C239.591 288.744 238.21 306.967 246.23 318.411C249.046 322.429 252.067 325.208 261.536 332.489C274.883 342.752 283.908 353.947 283.947 360.289C283.965 363.181 281.68 368.416 279.41 370.686C275.578 374.518 267.054 375.004 260.937 371.739C255.938 369.071 248.139 360.687 244.828 354.421C239.89 345.075 237.533 352.066 239.074 371.489C240.424 388.502 241.394 390.235 245.355 382.712L247.258 379.099L251.062 381.039C258.844 385.009 264.045 386.198 271.886 385.801C276.39 385.573 280.942 384.696 283.109 383.639C288.6 380.96 294.652 375.375 297.721 370.155C300.218 365.908 300.464 364.591 300.464 355.489C300.464 346.791 300.158 344.968 298.112 341.489C293.696 333.976 289.613 329.411 281.083 322.45C264.307 308.759 259.964 303.201 259.964 295.418C259.964 291.986 262.424 288.635 266.704 286.239C269.624 284.604 271.936 284.662 276.279 286.476C281.532 288.671 285.413 293.415 287.41 300.08C289.298 306.383 291.299 307.626 294.102 304.239C296.817 300.959 297.815 297.495 298.352 289.489C298.648 285.089 299.196 278.227 299.572 274.239C300.124 268.369 299.989 266.996 298.859 267.027C298.092 267.048 297.002 267.61 296.437 268.277ZM152.464 277.699C145.651 279.391 141.926 289.148 145.474 296.009C150.748 306.207 164.966 300.183 164.963 287.753C164.961 280.773 159.092 276.053 152.464 277.699ZM120.308 308.739C118.732 310.251 115.999 313.289 114.236 315.489L111.031 319.489L110.998 316.173C110.963 312.718 109.452 309.015 107.564 307.754C104.936 305.999 101.415 307.304 94.7893 312.489C90.9233 315.514 87.3563 317.989 86.8623 317.989C84.6643 317.989 86.2443 321.01 88.7143 321.53C94.1213 322.667 94.4464 323.21 94.7494 331.594C95.1524 342.783 92.5993 368.342 90.8653 370.468C90.0953 371.413 88.1734 373.448 86.5964 374.992C82.2014 379.292 83.7554 380.364 93.3554 379.654C105.8 378.734 116.088 377.131 117.599 375.877C119.943 373.931 119.108 372.192 115.214 370.909C109.603 369.061 109.028 367.721 109.027 356.489C109.025 340.646 110.446 332.198 113.816 328.023C115.385 326.079 117.628 324.346 118.802 324.171C120.579 323.907 121.139 324.616 122.157 328.421C123.364 332.935 123.429 332.989 127.621 332.989C131.255 332.989 132.227 332.511 134.413 329.645C138.841 323.839 137.405 311.512 131.847 307.62C128.258 305.106 123.628 305.555 120.308 308.739ZM185.464 307.186C184.364 307.811 181.439 309.935 178.964 311.906C171.894 317.535 171.429 318.732 175.959 319.638C178.426 320.131 179.144 320.943 180.034 324.249C180.628 326.455 180.836 330.337 180.496 332.875C180.157 335.413 179.51 342.889 179.059 349.489C178.453 358.365 177.651 362.856 175.979 366.739C174.735 369.626 173.323 371.989 172.841 371.989C172.359 371.989 171.964 373.339 171.964 374.989V377.989H182.899C188.913 377.989 194.988 377.55 196.399 377.014C199.44 375.857 199.851 372.454 197.038 371.719C193.441 370.778 192.439 364.289 193.784 350.638C194.442 343.956 194.977 336.617 194.972 334.328C194.965 330.863 195.503 329.713 198.185 327.456C199.957 325.965 202.843 324.061 204.598 323.224C207.537 321.822 208.047 321.853 211.068 323.618C215.51 326.212 216.451 330.242 214.87 339.91C213.084 350.835 212.557 374.86 214.042 377.636C215.999 381.292 220.035 382.404 224.53 380.526C228.838 378.726 234.964 374.328 234.964 373.036C234.964 372.568 233.63 371.72 231.999 371.151C227.819 369.694 227.41 366.854 228.954 349.997C231.418 323.098 231.391 319.083 228.717 313.989C223.367 303.797 211.779 303.607 200.195 313.523L196.216 316.929L195.633 313.335C194.596 306.947 190.376 304.395 185.464 307.186ZM157.464 309.955C155.814 310.332 151.4 312.104 147.656 313.894C140.116 317.496 139.44 319.21 144.464 321.982C148.254 324.073 148.455 325.897 147.033 345.381C145.736 363.154 144.766 366.854 140.209 371.411C134.846 376.774 136.132 377.365 151.733 376.711C165.228 376.145 168.393 375.261 166.442 372.602C160.715 364.797 160.748 365.143 163.028 337.489C164.897 314.805 164.838 311.98 162.464 310.508C161.252 309.757 159.282 309.539 157.464 309.955Z" fill="currentColor"/>
</svg>
